<svg data-v-4f752934="" version="1.0" xmlns="http://www.w3.org/2000/svg" width="100%" height="100%" viewBox="0 0 340.000000 250.000000" preserveAspectRatio="xMidYMid meet" color-interpolation-filters="sRGB" class="el-tooltip" style="margin: auto;">  <g data-v-4f752934="" fill="#f58021" transform="translate(60.216941833496094,90)"><g><rect x="0" y="0" width="219.5661163330078" height="70" fill-opacity="0" stroke="rgb(245, 128, 33)"></rect> <!----> <g transform="translate(0,0)"><g transform="translate(0,0)"><rect x="0" y="0" width="53.96611022949219" height="70"></rect> <!----> <g transform="translate(5,5)"><g><!----> <svg filter="url(#colors624491126)" x="0" y="0" width="43.966109457293" height="60"><svg xmlns="http://www.w3.org/2000/svg" viewBox="0 0 72.1 98.4"><path d="M30.9 94.2L4.1 67.4c-2.9-2.9-2.9-7.5 0-10.4l26.7-26.7c2.9-2.9 7.5-2.9 10.4 0L67.9 57c2.9 2.9 2.9 7.5 0 10.4L41.2 94.2c-2.8 2.8-7.5 2.8-10.3 0zm10.3-26.3l26.7-26.7c2.9-2.9 2.9-7.5 0-10.4L41.2 4.1c-2.9-2.9-7.5-2.9-10.4 0L4.1 30.9c-2.9 2.9-2.9 7.5 0 10.4L30.8 68c2.9 2.8 7.6 2.8 10.4-.1zm0 26.3l16.7-16.7c2.9-2.9 2.9-7.5 0-10.4L41.2 50.5c-2.9-2.9-7.5-2.9-10.4 0L14.2 67.2c-2.9 2.9-2.9 7.5 0 10.4l16.7 16.7c2.8 2.8 7.5 2.8 10.3-.1z" fill="none" stroke="#202121" stroke-width="4" stroke-miterlimit="10"></path></svg></svg> <defs><filter id="colors624491126"><feColorMatrix type="matrix" values="0 0 0 0 0.99609375  0 0 0 0 0.99609375  0 0 0 0 0.99609375  0 0 0 1 0"></feColorMatrix></filter></defs></g></g></g> <g transform="translate(53.96611022949219,0)"><rect x="0" y="0" width="165.60000610351562" height="70" fill-opacity="0"></rect> <!----> <g transform="translate(5,10.495624542236328)"><g transform="translate(0,0)"><g><path transform="translate(-2.4,33.2)" d="M26.96-33.12L26.96-28.72L37.56-28.72L37.56 2.80L29.48 2.80L29.48-1.52L33.24-1.52L33.24-24.40L26.96-24.40L26.96-3.16L22.80 2.80L19.24 0.36L22.64-4.52L22.64-24.40L19.92-24.40L19.92-28.72L22.64-28.72L22.64-33.12ZM19.24-6.84L17.12 0.64L2.52 0.64L2.52-3.80L2.56-4.04L5.76-16.68L2.40-16.68L2.40-21L19.40-21L19.40-16.68L10.16-16.68L6.88-3.68L13.88-3.68L15.12-8.04ZM18.48-26.16L3.24-26.16L3.24-30.48L18.48-30.48ZM60.44-31.76L58.84-26.40L77.40-26.40L77.40 2.76L67 2.76L67-1.56L73.08-1.56L73.08-22.08L57.52-22.08L50.08 2.76L42.60 2.76L42.60-1.56L46.88-1.56L53-22.08L43.24-22.08L43.24-26.40L54.32-26.40L56.28-32.96ZM116.08-19.60L102.12-19.60L102.12-17.56L117.96-17.56L117.96-13.24L82-13.24L82-17.56L97.84-17.56L97.84-19.60L83.88-19.60L83.88-23.92L97.84-23.92L97.84-26L83.40-26L83.40-30.28L89.76-30.28L89.76-33.12L94.04-33.12L94.04-30.28L105.92-30.28L105.92-33.12L110.20-33.12L110.20-30.28L116.56-30.28L116.56-26L102.12-26L102.12-23.92L116.08-23.92ZM82.52-1.28L95.68-6.68L83.28-6.68L83.28-11L97.76-11L97.76-12.72L102.04-12.72L102.04-11L116.68-11L116.68-6.68L104.12-6.68L117.44-1.28L115.80 2.72L99.92-3.76L84.16 2.68ZM153.76-8.12L141.48-8.12L146.68-3.20L151.32-7.84L154.32-4.84L151.08-1.56L156.36-1.56L156.36 2.72L146.72 2.72L135.20-8.12L130.56-8.12L130.56-1.56L139.68-1.56L139.68 2.76L126.24 2.76L126.24-20.68L123.96-19.52L122-23.32L137.84-31.52L137.84-33.20L142.16-33.20L142.16-31.52L158-23.32L156-19.52L153.76-20.68ZM130.56-12.44L139.08-12.44L136.20-15.36L139.24-18.40L130.56-18.40ZM149.44-12.44L149.44-18.40L140.76-18.40L143.80-15.36L140.92-12.44ZM130.08-22.68L138-22.68L138-25.76L141.96-25.76L141.96-22.68L149.84-22.68L140-27.76Z"></path></g> <!----></g> <g transform="translate(48.430002212524414,40.20000076293945)"><!----> <!----> <!----> <g><path transform="translate(-1.03125,8.71875)" d="M4.55-7.64L2.20-7.64L2.20-4.64L4.50-4.64L4.50-4.64Q6.28-4.64 6.28-6.19L6.28-6.19L6.28-6.19Q6.28-7.59 4.55-7.64L4.55-7.64ZM4.92-3.61L2.20-3.61L2.20 0L1.03 0L1.03-8.58L4.92-8.58L4.92-8.58Q7.36-8.48 7.45-6.19L7.45-6.19L7.45-6.19Q7.31-3.70 4.92-3.61L4.92-3.61ZM8.39-3.14L8.39-3.14L8.39-3.14Q8.58-6.33 11.30-6.47L11.30-6.47L11.30-6.47Q14.02-6.33 14.20-3.14L14.20-3.14L14.20-3.14Q14.02 0 11.30 0.09L11.30 0.09L11.30 0.09Q8.58 0 8.39-3.14ZM9.47-3.14L9.47-3.14L9.47-3.14Q9.61-0.80 11.30-0.75L11.30-0.75L11.30-0.75Q12.98-0.80 13.13-3.14L13.13-3.14L13.13-3.14Q12.98-5.48 11.30-5.53L11.30-5.53L11.30-5.53Q9.61-5.48 9.47-3.14ZM18.94-4.88L18.89-4.88L17.72 0L16.59 0L14.81-6.28L15.94-6.28L17.11-1.31L17.16-1.31L18.38-6.28L19.55-6.28L20.77-1.31L20.81-1.31L22.03-6.28L23.11-6.28L21.28 0L20.20 0L18.94-4.88ZM28.31-1.97L28.31-1.97L29.34-1.97L29.34-1.97Q29.16-0.89 28.22-0.23L28.22-0.23L28.22-0.23Q27.70 0.09 26.53 0.09L26.53 0.09L26.53 0.09Q23.86 0 23.72-2.95L23.72-2.95L23.72-2.95Q23.81-6.38 26.72-6.47L26.72-6.47L26.72-6.47Q29.39-6.42 29.44-2.77L29.44-2.77L24.84-2.77L24.84-2.77Q24.84-0.70 26.67-0.70L26.67-0.70L26.67-0.70Q27.98-0.80 28.31-1.97ZM24.84-3.61L24.84-3.61L28.36-3.61L28.36-3.61Q28.22-5.48 26.58-5.48L26.58-5.48L26.58-5.48Q25.03-5.34 24.84-3.61ZM31.88-3.66L31.88-3.66L31.88 0L30.80 0L30.80-6.28L31.83-6.28L31.83-5.20L31.83-5.20Q32.53-6.47 33.61-6.47L33.61-6.47L33.61-6.47Q33.70-6.47 33.80-6.42L33.80-6.42L33.80-6.42Q33.84-6.42 33.89-6.42L33.89-6.42L33.89-5.30L33.47-5.30L33.47-5.30Q31.97-5.20 31.88-3.66ZM40.31-6.28L40.31-5.39L39.23-5.39L39.23 0L38.20 0L38.20-5.39L37.36-5.39L37.36-6.28L38.20-6.28L38.20-7.31L38.20-7.31Q38.20-8.72 39.80-8.72L39.80-8.72L39.80-8.72Q40.08-8.72 40.31-8.67L40.31-8.67L40.31-7.78L40.31-7.78Q40.08-7.78 39.84-7.78L39.84-7.78L39.84-7.78Q39.23-7.78 39.23-7.03L39.23-7.03L39.23-6.28L40.31-6.28ZM40.92-3.14L40.92-3.14L40.92-3.14Q41.11-6.33 43.83-6.47L43.83-6.47L43.83-6.47Q46.55-6.33 46.73-3.14L46.73-3.14L46.73-3.14Q46.55 0 43.83 0.09L43.83 0.09L43.83 0.09Q41.11 0 40.92-3.14ZM42-3.14L42-3.14L42-3.14Q42.14-0.80 43.83-0.75L43.83-0.75L43.83-0.75Q45.52-0.80 45.66-3.14L45.66-3.14L45.66-3.14Q45.52-5.48 43.83-5.53L43.83-5.53L43.83-5.53Q42.14-5.48 42-3.14ZM47.58-3.14L47.58-3.14L47.58-3.14Q47.77-6.33 50.48-6.47L50.48-6.47L50.48-6.47Q53.20-6.33 53.39-3.14L53.39-3.14L53.39-3.14Q53.20 0 50.48 0.09L50.48 0.09L50.48 0.09Q47.77 0 47.58-3.14ZM48.66-3.14L48.66-3.14L48.66-3.14Q48.80-0.80 50.48-0.75L50.48-0.75L50.48-0.75Q52.17-0.80 52.31-3.14L52.31-3.14L52.31-3.14Q52.17-5.48 50.48-5.53L50.48-5.53L50.48-5.53Q48.80-5.48 48.66-3.14ZM58.73-8.58L59.77-8.58L59.77 0L58.78 0L58.78-0.84L58.78-0.84Q58.22 0.09 57 0.09L57 0.09L57 0.09Q54.38 0 54.23-3.33L54.23-3.33L54.23-3.33Q54.38-6.33 56.86-6.47L56.86-6.47L56.86-6.47Q57.84-6.47 58.64-5.53L58.64-5.53L58.64-5.53Q58.69-5.44 58.73-5.39L58.73-5.39L58.73-5.44L58.73-8.58ZM55.31-3.14L55.31-3.14L55.31-3.14Q55.41-0.80 57-0.70L57-0.70L57-0.70Q58.69-0.89 58.73-2.81L58.73-2.81L58.73-2.81Q58.73-5.48 57.05-5.48L57.05-5.48L57.05-5.48Q55.27-5.48 55.31-3.14Z"></path></g></g></g></g></g></g></g></svg>